<svg width="80" height="80" viewBox="0 0 80 80" fill="none" xmlns="http://www.w3.org/2000/svg">
<rect width="80" height="80" rx="10" fill="#0096C7"/>
<path d="M40 37.0707C41.3535 37.0707 42.4609 35.9452 42.4609 34.5695C42.4609 33.1939 41.3535 32.0684 40 32.0684C38.6465 32.0684 37.5391 33.1939 37.5391 34.5695C37.5391 35.9452 38.6465 37.0707 40 37.0707ZM40 33.7358C40.4512 33.7358 40.8203 34.111 40.8203 34.5695C40.8203 35.0281 40.4512 35.4032 40 35.4032C39.5488 35.4032 39.1797 35.0281 39.1797 34.5695C39.1797 34.111 39.5488 33.7358 40 33.7358Z" fill="white"/>
<path d="M40.8203 61.2523C40.8203 61.7106 40.4512 62.0856 40 62.0856C39.5488 62.0856 39.1797 61.7106 39.1797 61.2523C39.1797 60.7939 39.5488 60.4189 40 60.4189C40.4512 60.4189 40.8203 60.7939 40.8203 61.2523Z" fill="white"/>
<path d="M60.1797 54.5822H58.5391V36.2375C58.5391 34.8616 57.4316 33.7359 56.0781 33.7359H45.5371C45.1023 29.5166 43.3633 25.6059 40.6234 22.3539C40.4676 22.1704 40.2379 22.062 40 22.062C39.7621 22.062 39.5324 22.1704 39.3766 22.3539C36.6367 25.6059 34.8977 29.5166 34.4629 33.7359H23.9219C22.5684 33.7359 21.4609 34.8616 21.4609 36.2375V54.5822H19.8203C19.3691 54.5822 19 54.9575 19 55.4161V57.5007C19 60.0273 21.0262 62.0869 23.5117 62.0869H36.3086C36.7598 62.0869 37.1289 61.7117 37.1289 61.253C37.1289 60.7944 36.7598 60.4192 36.3086 60.4192H23.5117C21.9285 60.4192 20.6406 59.11 20.6406 57.5007V56.2499H31.9035C32.2727 57.6842 33.5523 58.7515 35.0781 58.7515H44.9219C46.4477 58.7515 47.7355 57.6842 48.0965 56.2499H59.3594V57.5007C59.3594 59.11 58.0715 60.4192 56.4883 60.4192H43.6914C43.2402 60.4192 42.8711 60.7944 42.8711 61.253C42.8711 61.7117 43.2402 62.0869 43.6914 62.0869H56.4883C58.9738 62.0869 61 60.0273 61 57.5007V55.4161C61 54.9575 60.6309 54.5822 60.1797 54.5822ZM56.8984 36.2375V54.5822H50.4262C49.7125 52.1307 47.4977 50.413 44.9219 50.413C44.0195 50.413 43.2812 49.6708 43.2812 48.7453V46.3771L44.5363 42.5247L47.793 44.4593C48.0473 44.6094 48.359 44.6094 48.6133 44.4593C48.8676 44.3092 49.0234 44.034 49.0234 43.7338C49.0234 43.4336 49.0234 43.1501 49.0234 42.8833C49.0316 39.0142 48.966 37.8135 46.7594 35.3953H56.0781C56.5293 35.4036 56.8984 35.7789 56.8984 36.2375ZM32.6172 42.2913C32.6172 39.3478 32.7156 38.4389 34.3727 36.6127C34.4301 38.0386 34.6352 39.4728 34.9879 40.882L32.6172 42.2913ZM40 30.4005C41.0418 30.4005 42.0508 30.117 42.9285 29.5834C43.5027 31.2177 43.8555 32.9021 43.9703 34.6198C44.0934 36.546 43.9211 38.4889 43.4453 40.3984H36.5547C36.0789 38.4889 35.9066 36.546 36.0297 34.6198C36.1445 32.9021 36.4891 31.2094 37.0715 29.5834C37.9492 30.117 38.9582 30.4005 40 30.4005ZM45.6273 36.6127C47.2844 38.4389 47.3828 39.3478 47.3828 42.2913L45.0121 40.882C45.373 39.4728 45.5781 38.0386 45.6273 36.6127ZM38.1297 45.4099L37.0469 42.0745H42.9531L41.8621 45.4099H38.1297ZM40 24.2133C40.9105 25.4058 41.6816 26.6816 42.2969 28.0157C41.6242 28.4827 40.8203 28.7328 40 28.7328C39.1797 28.7328 38.3758 28.4827 37.7031 28.0157C38.3184 26.6816 39.0895 25.4058 40 24.2133ZM23.1016 36.2375C23.1016 35.7789 23.4707 35.4036 23.9219 35.4036H33.2406C31.034 37.8218 30.9602 39.0226 30.9766 42.8916C30.9766 43.1585 30.9766 43.442 30.9766 43.7422C30.9766 44.0423 31.1324 44.3175 31.3867 44.4676C31.641 44.6177 31.9527 44.6177 32.207 44.4676L35.4637 42.5331L36.7188 46.3855V48.7453C36.7188 49.6625 35.9805 50.413 35.0781 50.413C32.5023 50.413 30.2875 52.1307 29.5738 54.5822H23.1016V36.2375ZM47.3828 54.5822C46.9316 54.5822 46.5625 54.9575 46.5625 55.4161C46.5625 56.3333 45.8242 57.0838 44.9219 57.0838H35.0781C34.1758 57.0838 33.4375 56.3333 33.4375 55.4161C33.4375 54.9575 33.0684 54.5822 32.6172 54.5822H31.3129C31.9527 53.0896 33.4047 52.0807 35.0781 52.0807C36.891 52.0807 38.3594 50.5881 38.3594 48.7453V47.0776H41.6406V48.7453C41.6406 50.6131 43.1336 52.0807 44.9219 52.0807C46.5953 52.0807 48.0473 53.0896 48.6871 54.5822H47.3828Z" fill="white"/>
</svg>
