<svg width="80" height="80" viewBox="0 0 80 80" fill="none" xmlns="http://www.w3.org/2000/svg">
<rect width="80" height="80" rx="10" fill="#0096C7"/>
<path d="M59.1036 37.6387H28.8209L57.9054 29.1089C58.1273 29.046 58.3226 28.8842 58.4379 28.6774C58.5533 28.4707 58.5799 28.219 58.5089 27.9943L56.9913 22.6733C56.3789 20.5431 54.4263 19.0601 52.243 19.0601C51.7814 19.0601 51.3199 19.123 50.8762 19.2578L23.5667 27.2663C22.2976 27.6348 21.2592 28.4887 20.6201 29.6661C19.9811 30.8346 19.8302 32.1828 20.1941 33.4682L21.6852 38.6633V60.0822C21.6852 62.8416 23.904 65.0887 26.6199 65.0887H37.288C37.7762 65.0887 38.1755 64.6842 38.1755 64.1899C38.1755 63.6955 37.7762 63.291 37.288 63.291H26.6199C24.8803 63.2821 23.4602 61.8439 23.4602 60.0733V47.8493H28.0044H34.9538H41.9032H48.8526H58.1983V60.0822C58.1983 61.8529 56.7783 63.291 55.0298 63.291H44.3883C43.9001 63.291 43.5007 63.6955 43.5007 64.1899C43.5007 64.6842 43.9001 65.0887 44.3883 65.0887H55.0564C57.7812 65.0887 60 62.8416 60 60.0822V38.5375C59.9911 38.0432 59.5917 37.6387 59.1036 37.6387ZM43.4564 46.0517L47.2284 39.4363H52.1276L48.3556 46.0517H43.4564ZM36.4981 46.0517L40.2701 39.4363H45.1782L41.4062 46.0517H36.4981ZM29.5398 46.0517L33.3119 39.4363H38.2199L34.4479 46.0517H29.5398ZM32.8415 34.4119L26.5311 28.273L31.2617 26.8798C31.2972 26.9247 31.3327 26.9787 31.377 27.0146L37.6874 33.1536L32.9568 34.5467C32.9302 34.5018 32.8858 34.4569 32.8415 34.4119ZM44.7344 23.1048L51.0448 29.2437L46.3142 30.6279C46.2787 30.5829 46.2432 30.529 46.1989 30.4931L39.8885 24.3541L44.619 22.9699C44.6545 23.0149 44.69 23.0598 44.7344 23.1048ZM38.0602 25.0642L44.3705 31.2031L39.64 32.5873C39.6045 32.5424 39.569 32.4884 39.5246 32.4525L33.2142 26.3135L37.9448 24.9294C37.9714 24.9743 38.0158 25.0192 38.0602 25.0642ZM51.3643 20.9835C51.6483 20.9026 51.9412 20.8577 52.2341 20.8577C53.6364 20.8577 54.8878 21.8105 55.2783 23.1677L56.5564 27.6258L52.9974 28.6685C52.9619 28.6235 52.9264 28.5696 52.882 28.5336L46.5716 22.3947L51.3643 20.9835ZM22.1733 30.529C22.5816 29.774 23.2561 29.2347 24.0638 28.992L24.5874 28.8392C24.6229 28.8842 24.6584 28.9381 24.7028 28.9741L31.0132 35.113L23.1762 37.414L21.8982 32.9558C21.6674 32.1469 21.7651 31.284 22.1733 30.529ZM23.4602 39.4363H31.2705L27.4985 46.0517H23.4602V39.4363ZM50.4058 46.0517L54.1778 39.4363H58.2161V46.0517H50.4058Z" fill="white"/>
<path d="M46.971 55.4716C46.971 55.148 46.8024 54.8514 46.5273 54.6896L38.7258 50.1326C38.4507 49.9708 38.1134 49.9708 37.8383 50.1326C37.5632 50.2944 37.3945 50.591 37.3945 50.9145V60.0286C37.3945 60.3522 37.5632 60.6488 37.8383 60.8106C37.9714 60.8915 38.1312 60.9274 38.2821 60.9274C38.4329 60.9274 38.5927 60.8915 38.7258 60.8106L46.5273 56.2535C46.8024 56.0918 46.971 55.7951 46.971 55.4716ZM39.1785 58.4736V52.4695L44.3173 55.4716L39.1785 58.4736Z" fill="white"/>
<path d="M40.8387 63.2822C40.3506 63.2822 39.9512 63.6864 39.9512 64.1805C39.9512 64.6745 40.3506 65.0788 40.8387 65.0788C41.3268 65.0788 41.7262 64.6745 41.7262 64.1805C41.7262 63.6864 41.3268 63.2822 40.8387 63.2822Z" fill="white"/>
</svg>
