<svg width="80" height="80" viewBox="0 0 80 80" fill="none" xmlns="http://www.w3.org/2000/svg">
<rect width="80" height="80" rx="10" fill="#0096C7"/>
<path d="M17.9219 33.1378C17.4627 32.9995 16.9753 33.23 16.7878 33.6541C16.7222 33.8108 15.1569 37.4802 16.6285 40.5871C17.9126 43.2884 21.0056 44.5331 21.8961 44.8465C21.9898 45.3352 22.0929 45.8238 22.2335 46.3124C19.6559 45.3813 16.8909 45.999 16.7503 46.0358C16.2817 46.1465 15.9723 46.5798 16.0286 47.0408C16.0473 47.2067 16.5628 51.1618 19.4122 53.1256C21.9148 54.8496 26.0671 54.527 26.7419 54.0014C27.2106 54.4624 27.698 54.8957 28.2228 55.3014C26.1514 56.168 24.7361 57.6984 24.6611 57.7814C24.3424 58.1318 24.3424 58.6573 24.6611 59.0076C24.783 59.1367 27.5105 62.0869 30.9972 62.0869C34.484 62.0869 37.2022 59.1367 37.324 59.0168C37.3428 58.9984 37.3521 58.9892 37.3615 58.9707L39.8641 59.3211C39.911 59.3303 39.9485 59.3303 39.9953 59.3303C40.0422 59.3303 40.0797 59.3303 40.1265 59.3211L42.6385 58.9707C42.6479 58.9892 42.6666 59.0076 42.676 59.0168C42.7885 59.1459 45.516 62.0869 49.0028 62.0869C52.4895 62.0869 55.2077 59.1367 55.3295 59.0168C55.6482 58.6665 55.6482 58.141 55.3295 57.7906C55.2452 57.6984 53.8392 56.168 51.7678 55.3014C52.2833 54.8957 52.7801 54.4624 53.2487 54.0014C53.9236 54.5177 58.0477 54.8681 60.5878 53.1256C63.4465 51.1618 63.9527 47.2067 63.9714 47.0408C64.0277 46.5706 63.7183 46.1373 63.2497 46.0358C63.1091 46.0082 60.3441 45.3905 57.7665 46.3216C57.8977 45.8422 58.0102 45.3536 58.1039 44.8557C58.985 44.5515 62.0874 43.2977 63.3715 40.5964C64.8431 37.4894 63.2778 33.8201 63.2122 33.6633C63.0247 33.23 62.5373 33.0088 62.0781 33.147C61.9562 33.1839 59.8098 33.8385 58.1039 35.4335C57.9258 34.2718 57.6634 33.1286 57.326 32.0038C57.6634 30.6855 57.9915 28.4175 57.0448 26.4168C55.5732 23.3099 51.6928 22.1575 51.5335 22.1114C51.0836 21.9823 50.5962 22.2036 50.4087 22.6277C50.3431 22.7844 48.7778 26.4261 50.2494 29.533C51.7209 32.64 55.592 33.8201 55.7513 33.8662C55.7982 33.8846 55.8544 33.8938 55.9013 33.8938C56.2012 35.1477 56.3887 36.4292 56.4637 37.7199C55.5732 39.8404 56.0138 42.1544 56.4074 43.482C56.2293 45.0678 55.8075 46.6167 55.1421 48.0733C54.4578 48.8293 53.8955 49.7789 53.483 50.8945C52.3583 52.4157 50.9711 53.6972 49.3683 54.7206C49.2465 54.7113 49.1246 54.7113 49.0028 54.7113C45.8909 54.7113 43.7539 56.9424 43.4258 56.9978L40.0047 57.468L36.5835 56.9978C36.2649 56.9424 33.9216 54.5362 30.6411 54.7206C29.0477 53.6972 27.6605 52.4157 26.5357 50.9037C26.1139 49.7789 25.5515 48.8293 24.8673 48.0733C24.2112 46.6167 23.78 45.077 23.6113 43.4913C24.005 42.1637 24.4455 39.8404 23.5551 37.7199C23.6301 36.4292 23.8175 35.1477 24.1175 33.8938C24.6986 33.8201 28.3916 32.4372 29.7694 29.5238C31.2409 26.4168 29.6757 22.7752 29.61 22.6184C29.4226 22.1943 28.9446 21.9639 28.4853 22.1021C28.3166 22.1482 24.4455 23.2915 22.974 26.4076C22.0179 28.4175 22.3554 30.6762 22.6928 31.9946C22.346 33.1194 22.0835 34.2626 21.9148 35.415C20.1902 33.8385 18.0438 33.1747 17.9219 33.1378ZM61.9094 47.6953C61.6282 48.7832 60.9533 50.6087 59.4911 51.6136C58.0289 52.6185 56.0512 52.6185 54.9171 52.5079C55.3014 51.0236 56.07 49.4655 57.3353 48.5896C58.8069 47.5847 60.7752 47.5847 61.9094 47.6953ZM61.7688 35.2399C62.0781 36.3185 62.4155 38.227 61.6657 39.8219C60.9065 41.4169 59.2006 42.3849 58.1602 42.8459C57.879 41.8502 57.5041 39.8957 58.2539 38.2915C58.2539 38.2823 58.2633 38.2731 58.2633 38.2638C59.0225 36.6689 60.7284 35.7008 61.7688 35.2399ZM51.9271 28.7494C51.1773 27.1544 51.5147 25.2644 51.824 24.195C52.8551 24.6467 54.5703 25.5963 55.3295 27.1913C56.0981 28.8047 55.7232 30.75 55.4326 31.7733C54.4016 31.3124 52.6863 30.3443 51.9271 28.7494ZM48.9934 60.243C47.2031 60.243 45.591 59.1275 44.7287 58.3991C45.6097 57.6616 47.2125 56.5552 48.9934 56.5552C50.7836 56.5552 52.3958 57.6708 53.2581 58.3991C52.3958 59.1275 50.7836 60.243 48.9934 60.243ZM30.9972 60.243C29.207 60.243 27.5949 59.1275 26.7325 58.3991C27.5949 57.6708 29.2164 56.5552 30.9972 56.5552C32.7781 56.5552 34.3996 57.6708 35.262 58.3991C34.3996 59.1275 32.7781 60.243 30.9972 60.243ZM18.325 39.8219C17.5658 38.227 17.9126 36.3185 18.2219 35.2399C19.2529 35.7008 20.9588 36.6597 21.718 38.2546C21.718 38.2638 21.7274 38.2731 21.7274 38.2823C22.4772 39.8957 22.1023 41.8502 21.8211 42.8459C20.7994 42.3849 19.0842 41.4169 18.325 39.8219ZM20.4995 51.6136C19.0373 50.6087 18.3625 48.7832 18.0813 47.6953C19.2154 47.5847 21.1837 47.5847 22.6459 48.5896C23.9206 49.4655 24.6799 51.0328 25.0641 52.5079C23.9394 52.6185 21.9617 52.6185 20.4995 51.6136ZM24.6611 27.1913C25.4109 25.5963 27.1262 24.6467 28.1666 24.195C28.4759 25.2644 28.8133 27.1544 28.0635 28.7494C27.3043 30.3443 25.5984 31.3124 24.558 31.7733C24.2674 30.7592 23.8925 28.8047 24.6611 27.1913Z" fill="#F2F2F2"/>
<path d="M40.9322 39.0375C40.9322 38.5305 40.5104 38.1157 39.9949 38.1157C39.4794 38.1157 39.0576 38.5305 39.0576 39.0375V41.8029C39.0576 42.3099 39.4794 42.7247 39.9949 42.7247C40.5104 42.7247 40.9322 42.3099 40.9322 41.8029V39.0375Z" fill="#F2F2F2"/>
<path d="M39.9949 47.3344C40.5126 47.3344 40.9322 46.9219 40.9322 46.4131C40.9322 45.9042 40.5126 45.4917 39.9949 45.4917C39.4773 45.4917 39.0576 45.9042 39.0576 46.4131C39.0576 46.9219 39.4773 47.3344 39.9949 47.3344Z" fill="#F2F2F2"/>
<path d="M52.2172 36.5121C52.1047 36.1802 51.8141 35.9405 51.4673 35.8851L44.147 34.7973L40.8383 28.2883C40.679 27.9749 40.351 27.7812 40.0042 27.7812C39.648 27.7812 39.3199 27.9749 39.17 28.2883L35.8613 34.7973L28.541 35.8851C28.1942 35.9405 27.8943 36.1802 27.7912 36.5121C27.6787 36.844 27.7724 37.2127 28.0255 37.4525L33.3025 42.56L32.0934 49.742C32.0371 50.0831 32.1777 50.4334 32.4683 50.6363C32.7588 50.8391 33.1338 50.8668 33.4524 50.71L36.6767 49.0597C37.136 48.8293 37.3141 48.2669 37.0798 47.8151C36.8455 47.3634 36.2737 47.1882 35.8144 47.4187L34.2585 48.2116L35.2427 42.3756C35.2895 42.0806 35.1958 41.7764 34.9802 41.5643L30.6968 37.4156L36.6486 36.5305C36.9486 36.4844 37.211 36.3 37.3516 36.0327L40.0416 30.7407L42.7317 36.0327C42.8723 36.3 43.1254 36.4844 43.4347 36.5305L49.3865 37.4156L45.1031 41.5643C44.8875 41.7764 44.7844 42.0806 44.8406 42.3756L45.8248 48.2116L44.2689 47.4187C43.8096 47.1882 43.2472 47.3634 43.0035 47.8151C42.7692 48.2669 42.9473 48.82 43.4065 49.0597L46.6309 50.71C46.9495 50.876 47.3338 50.8391 47.615 50.6363C47.9056 50.4334 48.0462 50.0831 47.9899 49.742L46.7808 42.56L52.0578 37.4525C52.2359 37.2127 52.3203 36.844 52.2172 36.5121Z" fill="#F2F2F2"/>
</svg>
