<svg width="43" height="22" viewBox="0 0 43 22" fill="none" xmlns="http://www.w3.org/2000/svg">
<path fill-rule="evenodd" clip-rule="evenodd" d="M24.6406 3.80206V6.99426L25.8551 7.02315C26.5231 7.03905 27.9165 7.05242 28.9516 7.05286C31.2245 7.05387 32.748 7.11167 33.0857 7.20971C33.5922 7.35679 34.1098 7.68574 34.6467 8.20196C35.0475 8.58723 35.3296 8.97456 35.6635 9.59802L35.8886 10.0183L35.8886 11.9208C35.8886 12.9671 35.9017 15.5242 35.9177 17.6032L35.9468 21.3831H39.1831H42.4195L42.3887 15.6968L42.3581 10.0104L37.6682 5.31014L32.9783 0.609863H28.8094H24.6406V3.80206ZM6.87136 3.9356V7.12986L10.6243 7.1537C12.6885 7.1668 14.536 7.19691 14.7299 7.22058C16.1799 7.39777 17.6222 8.73733 17.9673 10.2276C18.0794 10.7116 18.1179 12.4532 18.1187 17.0773L18.1194 21.4708H21.3143H24.5093V15.7624V10.0541L19.859 5.3977L15.2087 0.74134H11.04H6.87136V3.9356ZM0 14.393V21.6022H3.37003H6.74006V14.393V7.18368H3.37003H0V14.393Z" fill="black"/>
</svg>
