<svg width="65" height="32" viewBox="0 0 65 32" fill="none" xmlns="http://www.w3.org/2000/svg">
<path fill-rule="evenodd" clip-rule="evenodd" d="M37.3139 5.04399V9.87803L39.1531 9.92176C40.1647 9.94585 42.2747 9.9661 43.8422 9.96676C47.2841 9.96829 49.5912 10.0558 50.1025 10.2043C50.8696 10.427 51.6533 10.9252 52.4664 11.7069C53.0733 12.2903 53.5005 12.8768 54.0062 13.821L54.3471 14.4574L54.3471 17.3384C54.3471 18.9229 54.3669 22.7952 54.3911 25.9434L54.4351 31.6674H59.336H64.2369L64.1904 23.0565L64.1439 14.4455L57.0419 7.32771L49.9398 0.209961H43.6269H37.3139V5.04399ZM10.4055 5.24621V10.0834L16.0887 10.1195C19.2145 10.1393 22.0122 10.1849 22.3059 10.2207C24.5017 10.4891 26.6857 12.5176 27.2084 14.7744C27.3781 15.5073 27.4364 18.1446 27.4376 25.147L27.4386 31.8002H32.2768H37.1151V23.1559V14.5116L30.073 7.46031L23.031 0.409059H16.7182H10.4055V5.24621ZM0 21.0821V31.9993H5.10332H10.2066V21.0821V10.1649H5.10332H0V21.0821Z" fill="white"/>
</svg>
